<svg xmlns="http://www.w3.org/2000/svg" width="512" height="512" fill="none"><g clip-path="url(#clip0)"><rect width="512" height="512" fill="url(#paint0_linear)" rx="40"/><path fill="url(#paint1_linear)" d="M512 386.25V472a40 40 0 01-40 40H40a40 40 0 01-40-40V263.96c165.66 64.73 370.51 104.62 512 122.3z"/><g filter="url(#filter0_d)"><path fill="url(#paint2_linear)" d="M376.7 205.13H267.05L325.33 104H193.52L135.3 270.38h93.6L187.4 424l189.3-218.87z"/></g><g filter="url(#filter1_d)"><path fill="url(#paint3_linear)" d="M293.62 254.64v6.78c0 3.28-1.32 5.68-3.96 7.2-2.6 1.52-5.9 2.28-9.9 2.28-3.96 0-7.22-.76-9.78-2.28-2.52-1.52-3.78-3.92-3.78-7.2v-2.64c0-.92.8-1.38 2.4-1.38 1.6 0 2.4.46 2.4 1.38v3.24c0 1.64.82 2.84 2.46 3.6 1.68.72 3.78 1.08 6.3 1.08 2.56 0 4.7-.38 6.42-1.14 1.76-.76 2.64-1.94 2.64-3.54v-7.38c0-1.84-.32-3.08-.96-3.72-.6-.64-2-.96-4.2-.96h-10.32c-.8 0-1.2-.7-1.2-2.1 0-1.4.4-2.1 1.2-2.1h8.46l2.82-2.88c2.24-2.28 3.36-4.48 3.36-6.6v-.72c0-2.04-.36-3.5-1.08-4.38-.68-.92-1.88-1.38-3.6-1.38h-13.92c-.8 0-1.2-.7-1.2-2.1 0-1.4.4-2.1 1.2-2.1h13.92c3.44 0 5.88.8 7.32 2.4 1.44 1.6 2.16 4.12 2.16 7.56v1.02c0 1.16-.36 2.52-1.08 4.08a14.13 14.13 0 01-2.76 4.08l-1.32 1.32c2.12.4 3.64 1.26 4.56 2.58.96 1.32 1.44 3.32 1.44 6z"/></g><g filter="url(#filter2_d)"><path fill="url(#paint4_linear)" d="M205.38 213.56v1.02c0 2.32-1.28 5.04-3.84 8.16l-17.4 21.06h20.04c.8 0 1.2.7 1.2 2.1 0 1.4-.4 2.1-1.2 2.1H178.8c-.8 0-1.2-.7-1.2-2.1 0-.84.18-1.48.54-1.92l19.08-23.1c1.2-1.48 2.06-2.7 2.58-3.66a6.1 6.1 0 00.78-2.94v-.72c0-2.04-.36-3.5-1.08-4.38-.68-.92-1.88-1.38-3.6-1.38h-14.52c-.8 0-1.2-.7-1.2-2.1 0-1.4.4-2.1 1.2-2.1h14.52c3.44 0 5.88.8 7.32 2.4 1.44 1.6 2.16 4.12 2.16 7.56z"/></g><g filter="url(#filter3_d)"><path fill="url(#paint5_linear)" d="M249.4 172H229c-.8 0-1.2-.7-1.2-2.1 0-1.4.4-2.1 1.2-2.1h7.8v-36H229c-.8 0-1.2-.7-1.2-2.1 0-1.4.4-2.1 1.2-2.1h9c1.52 0 2.5.32 2.94.96.44.6.66 1.72.66 3.36v35.88h7.8c.8 0 1.2.7 1.2 2.1 0 1.4-.4 2.1-1.2 2.1z"/></g></g><defs><linearGradient id="paint0_linear" x1="0" x2="512" y1="0" y2="512" gradientUnits="userSpaceOnUse"><stop stop-color="#0183E2"/><stop offset="1" stop-color="#3A003F"/></linearGradient><linearGradient id="paint1_linear" x1="-528" x2="610" y1="264" y2="524" gradientUnits="userSpaceOnUse"><stop stop-color="#01001B"/><stop offset="1" stop-color="#0173F9"/></linearGradient><linearGradient id="paint2_linear" x1="256" x2="256" y1="104" y2="424" gradientUnits="userSpaceOnUse"><stop stop-color="#FFF500"/><stop offset="1" stop-color="#7AB400"/></linearGradient><linearGradient id="paint3_linear" x1="280" x2="280" y1="210" y2="286" gradientUnits="userSpaceOnUse"><stop stop-color="#0092FF"/><stop offset="1" stop-color="#002E73"/></linearGradient><linearGradient id="paint4_linear" x1="192" x2="192" y1="188" y2="264" gradientUnits="userSpaceOnUse"><stop stop-color="#0092FF"/><stop offset="1" stop-color="#002E73"/></linearGradient><linearGradient id="paint5_linear" x1="238" x2="238" y1="112" y2="188" gradientUnits="userSpaceOnUse"><stop stop-color="#0092FF"/><stop offset="1" stop-color="#002E73"/></linearGradient><filter id="filter0_d" width="350" height="350" x="81" y="93" color-interpolation-filters="sRGB" filterUnits="userSpaceOnUse"><feFlood flood-opacity="0" result="BackgroundImageFix"/><feColorMatrix in="SourceAlpha" values="0 0 0 0 0 0 0 0 0 0 0 0 0 0 0 0 0 0 127 0"/><feOffset dy="4"/><feGaussianBlur stdDeviation="7.5"/><feColorMatrix values="0 0 0 0 0 0 0 0 0 0 0 0 0 0 0 0 0 0 0.25 0"/><feBlend in2="BackgroundImageFix" result="effect1_dropShadow"/><feBlend in="SourceGraphic" in2="effect1_dropShadow" result="shape"/></filter><filter id="filter1_d" width="57.42" height="75.3" x="251.2" y="214.6" color-interpolation-filters="sRGB" filterUnits="userSpaceOnUse"><feFlood flood-opacity="0" result="BackgroundImageFix"/><feColorMatrix in="SourceAlpha" values="0 0 0 0 0 0 0 0 0 0 0 0 0 0 0 0 0 0 127 0"/><feOffset dy="4"/><feGaussianBlur stdDeviation="7.5"/><feColorMatrix values="0 0 0 0 0 0 0 0 0 0 0 0 0 0 0 0 0 0 0.25 0"/><feBlend in2="BackgroundImageFix" result="effect1_dropShadow"/><feBlend in="SourceGraphic" in2="effect1_dropShadow" result="shape"/></filter><filter id="filter2_d" width="57.78" height="74.4" x="162.6" y="192.6" color-interpolation-filters="sRGB" filterUnits="userSpaceOnUse"><feFlood flood-opacity="0" result="BackgroundImageFix"/><feColorMatrix in="SourceAlpha" values="0 0 0 0 0 0 0 0 0 0 0 0 0 0 0 0 0 0 127 0"/><feOffset dy="4"/><feGaussianBlur stdDeviation="7.5"/><feColorMatrix values="0 0 0 0 0 0 0 0 0 0 0 0 0 0 0 0 0 0 0.25 0"/><feBlend in2="BackgroundImageFix" result="effect1_dropShadow"/><feBlend in="SourceGraphic" in2="effect1_dropShadow" result="shape"/></filter><filter id="filter3_d" width="52.8" height="74.4" x="212.8" y="116.6" color-interpolation-filters="sRGB" filterUnits="userSpaceOnUse"><feFlood flood-opacity="0" result="BackgroundImageFix"/><feColorMatrix in="SourceAlpha" values="0 0 0 0 0 0 0 0 0 0 0 0 0 0 0 0 0 0 127 0"/><feOffset dy="4"/><feGaussianBlur stdDeviation="7.5"/><feColorMatrix values="0 0 0 0 0 0 0 0 0 0 0 0 0 0 0 0 0 0 0.25 0"/><feBlend in2="BackgroundImageFix" result="effect1_dropShadow"/><feBlend in="SourceGraphic" in2="effect1_dropShadow" result="shape"/></filter><clipPath id="clip0"><path fill="#fff" d="M0 0h512v512H0z"/></clipPath></defs></svg>
